<mxfile host="Electron" agent="Mozilla/5.0 (Windows NT 10.0; Win64; x64) AppleWebKit/537.36 (KHTML, like Gecko) draw.io/24.7.8 Chrome/128.0.6613.36 Electron/32.0.1 Safari/537.36" version="24.7.8">
  <diagram name="Page-1" id="JZKYoygGf5MJPqJE7-kA">
    <mxGraphModel dx="7720" dy="2555" grid="1" gridSize="10" guides="1" tooltips="1" connect="1" arrows="1" fold="1" page="1" pageScale="1" pageWidth="850" pageHeight="1100" math="0" shadow="0">
      <root>
        <mxCell id="0" />
        <mxCell id="1" parent="0" />
        <mxCell id="CR93T0IN1tyJL_ZKIWgp-10" style="edgeStyle=orthogonalEdgeStyle;rounded=0;orthogonalLoop=1;jettySize=auto;html=1;exitX=0.5;exitY=1;exitDx=0;exitDy=0;exitPerimeter=0;" parent="1" source="CR93T0IN1tyJL_ZKIWgp-1" target="CR93T0IN1tyJL_ZKIWgp-3" edge="1">
          <mxGeometry relative="1" as="geometry" />
        </mxCell>
        <mxCell id="CR93T0IN1tyJL_ZKIWgp-1" value="&lt;font style=&quot;font-size: 18px;&quot;&gt;Start&amp;nbsp;&lt;/font&gt;" style="strokeWidth=2;html=1;shape=mxgraph.flowchart.start_1;whiteSpace=wrap;" parent="1" vertex="1">
          <mxGeometry x="-120" y="240" width="100" height="60" as="geometry" />
        </mxCell>
        <mxCell id="CR93T0IN1tyJL_ZKIWgp-21" style="edgeStyle=orthogonalEdgeStyle;rounded=0;orthogonalLoop=1;jettySize=auto;html=1;exitX=0;exitY=0.5;exitDx=0;exitDy=0;exitPerimeter=0;entryX=1;entryY=0.5;entryDx=0;entryDy=0;" parent="1" source="CR93T0IN1tyJL_ZKIWgp-3" target="CR93T0IN1tyJL_ZKIWgp-4" edge="1">
          <mxGeometry relative="1" as="geometry" />
        </mxCell>
        <mxCell id="CR93T0IN1tyJL_ZKIWgp-22" style="edgeStyle=orthogonalEdgeStyle;rounded=0;orthogonalLoop=1;jettySize=auto;html=1;exitX=1;exitY=0.5;exitDx=0;exitDy=0;exitPerimeter=0;entryX=0;entryY=0.5;entryDx=0;entryDy=0;" parent="1" source="CR93T0IN1tyJL_ZKIWgp-3" target="CR93T0IN1tyJL_ZKIWgp-5" edge="1">
          <mxGeometry relative="1" as="geometry" />
        </mxCell>
        <mxCell id="CR93T0IN1tyJL_ZKIWgp-3" value="&lt;font size=&quot;3&quot;&gt;New&amp;nbsp;&lt;/font&gt;&lt;div&gt;&lt;font size=&quot;3&quot;&gt;&amp;nbsp; &amp;nbsp;User ?&amp;nbsp;&lt;/font&gt;&lt;/div&gt;" style="strokeWidth=2;html=1;shape=mxgraph.flowchart.decision;whiteSpace=wrap;" parent="1" vertex="1">
          <mxGeometry x="-120" y="340" width="100" height="100" as="geometry" />
        </mxCell>
        <mxCell id="CR93T0IN1tyJL_ZKIWgp-4" value="&lt;font size=&quot;3&quot;&gt;Register&lt;/font&gt;" style="rounded=1;whiteSpace=wrap;html=1;absoluteArcSize=1;arcSize=14;strokeWidth=2;" parent="1" vertex="1">
          <mxGeometry x="-320" y="360" width="140" height="60" as="geometry" />
        </mxCell>
        <mxCell id="CR93T0IN1tyJL_ZKIWgp-23" style="edgeStyle=orthogonalEdgeStyle;rounded=0;orthogonalLoop=1;jettySize=auto;html=1;exitX=0.5;exitY=1;exitDx=0;exitDy=0;" parent="1" source="CR93T0IN1tyJL_ZKIWgp-5" target="CR93T0IN1tyJL_ZKIWgp-17" edge="1">
          <mxGeometry relative="1" as="geometry" />
        </mxCell>
        <mxCell id="CR93T0IN1tyJL_ZKIWgp-5" value="&lt;font size=&quot;3&quot;&gt;Login&lt;/font&gt;" style="rounded=1;whiteSpace=wrap;html=1;absoluteArcSize=1;arcSize=14;strokeWidth=2;" parent="1" vertex="1">
          <mxGeometry x="35" y="360" width="140" height="60" as="geometry" />
        </mxCell>
        <mxCell id="CR93T0IN1tyJL_ZKIWgp-28" style="edgeStyle=orthogonalEdgeStyle;rounded=0;orthogonalLoop=1;jettySize=auto;html=1;exitX=0.5;exitY=1;exitDx=0;exitDy=0;exitPerimeter=0;entryX=0.5;entryY=0;entryDx=0;entryDy=0;" parent="1" source="CR93T0IN1tyJL_ZKIWgp-7" target="CR93T0IN1tyJL_ZKIWgp-8" edge="1">
          <mxGeometry relative="1" as="geometry" />
        </mxCell>
        <mxCell id="CR93T0IN1tyJL_ZKIWgp-30" style="edgeStyle=orthogonalEdgeStyle;rounded=0;orthogonalLoop=1;jettySize=auto;html=1;exitX=0;exitY=0.5;exitDx=0;exitDy=0;exitPerimeter=0;entryX=1;entryY=0.5;entryDx=0;entryDy=0;" parent="1" source="CR93T0IN1tyJL_ZKIWgp-7" target="CR93T0IN1tyJL_ZKIWgp-9" edge="1">
          <mxGeometry relative="1" as="geometry" />
        </mxCell>
        <mxCell id="CR93T0IN1tyJL_ZKIWgp-7" value="&lt;font size=&quot;3&quot;&gt;Valid ?&amp;nbsp;&lt;/font&gt;" style="strokeWidth=2;html=1;shape=mxgraph.flowchart.decision;whiteSpace=wrap;" parent="1" vertex="1">
          <mxGeometry x="-305" y="450" width="100" height="100" as="geometry" />
        </mxCell>
        <mxCell id="CR93T0IN1tyJL_ZKIWgp-33" style="edgeStyle=orthogonalEdgeStyle;rounded=0;orthogonalLoop=1;jettySize=auto;html=1;exitX=1;exitY=0.5;exitDx=0;exitDy=0;entryX=0;entryY=0.75;entryDx=0;entryDy=0;" parent="1" source="CR93T0IN1tyJL_ZKIWgp-8" target="CR93T0IN1tyJL_ZKIWgp-5" edge="1">
          <mxGeometry relative="1" as="geometry">
            <Array as="points">
              <mxPoint x="-10" y="600" />
              <mxPoint x="-10" y="405" />
            </Array>
          </mxGeometry>
        </mxCell>
        <mxCell id="CR93T0IN1tyJL_ZKIWgp-8" value="&lt;font size=&quot;3&quot;&gt;Display Successfully&amp;nbsp;&lt;/font&gt;" style="shape=parallelogram;html=1;strokeWidth=2;perimeter=parallelogramPerimeter;whiteSpace=wrap;rounded=1;arcSize=12;size=0.23;" parent="1" vertex="1">
          <mxGeometry x="-325" y="570" width="140" height="60" as="geometry" />
        </mxCell>
        <mxCell id="CR93T0IN1tyJL_ZKIWgp-31" style="edgeStyle=orthogonalEdgeStyle;rounded=0;orthogonalLoop=1;jettySize=auto;html=1;exitX=0.5;exitY=0;exitDx=0;exitDy=0;entryX=0.5;entryY=0;entryDx=0;entryDy=0;" parent="1" source="CR93T0IN1tyJL_ZKIWgp-9" target="CR93T0IN1tyJL_ZKIWgp-4" edge="1">
          <mxGeometry relative="1" as="geometry" />
        </mxCell>
        <mxCell id="CR93T0IN1tyJL_ZKIWgp-9" value="&lt;font size=&quot;3&quot;&gt;Display&amp;nbsp;&lt;/font&gt;&lt;div&gt;&lt;font size=&quot;3&quot;&gt;Incorrect Info&amp;nbsp;&lt;/font&gt;&lt;/div&gt;" style="shape=parallelogram;html=1;strokeWidth=2;perimeter=parallelogramPerimeter;whiteSpace=wrap;rounded=1;arcSize=12;size=0.23;" parent="1" vertex="1">
          <mxGeometry x="-465" y="470" width="140" height="60" as="geometry" />
        </mxCell>
        <mxCell id="CR93T0IN1tyJL_ZKIWgp-24" style="edgeStyle=orthogonalEdgeStyle;rounded=0;orthogonalLoop=1;jettySize=auto;html=1;exitX=0.5;exitY=1;exitDx=0;exitDy=0;exitPerimeter=0;entryX=0.5;entryY=0;entryDx=0;entryDy=0;" parent="1" source="CR93T0IN1tyJL_ZKIWgp-17" target="CR93T0IN1tyJL_ZKIWgp-18" edge="1">
          <mxGeometry relative="1" as="geometry" />
        </mxCell>
        <mxCell id="CR93T0IN1tyJL_ZKIWgp-25" style="edgeStyle=orthogonalEdgeStyle;rounded=0;orthogonalLoop=1;jettySize=auto;html=1;exitX=1;exitY=0.5;exitDx=0;exitDy=0;exitPerimeter=0;entryX=0;entryY=0.25;entryDx=0;entryDy=0;" parent="1" source="CR93T0IN1tyJL_ZKIWgp-17" target="CR93T0IN1tyJL_ZKIWgp-19" edge="1">
          <mxGeometry relative="1" as="geometry" />
        </mxCell>
        <mxCell id="CR93T0IN1tyJL_ZKIWgp-17" value="&lt;font size=&quot;3&quot;&gt;Valid ?&amp;nbsp;&lt;/font&gt;" style="strokeWidth=2;html=1;shape=mxgraph.flowchart.decision;whiteSpace=wrap;" parent="1" vertex="1">
          <mxGeometry x="55" y="450" width="100" height="100" as="geometry" />
        </mxCell>
        <mxCell id="CR93T0IN1tyJL_ZKIWgp-18" value="&lt;font size=&quot;3&quot;&gt;Display Successfully&amp;nbsp;&lt;/font&gt;" style="shape=parallelogram;html=1;strokeWidth=2;perimeter=parallelogramPerimeter;whiteSpace=wrap;rounded=1;arcSize=12;size=0.23;" parent="1" vertex="1">
          <mxGeometry x="35" y="580" width="140" height="60" as="geometry" />
        </mxCell>
        <mxCell id="CR93T0IN1tyJL_ZKIWgp-32" style="edgeStyle=orthogonalEdgeStyle;rounded=0;orthogonalLoop=1;jettySize=auto;html=1;exitX=0.5;exitY=0;exitDx=0;exitDy=0;entryX=0.5;entryY=0;entryDx=0;entryDy=0;" parent="1" source="CR93T0IN1tyJL_ZKIWgp-19" target="CR93T0IN1tyJL_ZKIWgp-5" edge="1">
          <mxGeometry relative="1" as="geometry" />
        </mxCell>
        <mxCell id="CR93T0IN1tyJL_ZKIWgp-19" value="&lt;font size=&quot;3&quot;&gt;Display&amp;nbsp;&lt;/font&gt;&lt;div&gt;&lt;font size=&quot;3&quot;&gt;Incorrect Info&amp;nbsp;&lt;/font&gt;&lt;/div&gt;" style="shape=parallelogram;html=1;strokeWidth=2;perimeter=parallelogramPerimeter;whiteSpace=wrap;rounded=1;arcSize=12;size=0.23;" parent="1" vertex="1">
          <mxGeometry x="170" y="480" width="140" height="60" as="geometry" />
        </mxCell>
        <mxCell id="CR93T0IN1tyJL_ZKIWgp-26" style="edgeStyle=orthogonalEdgeStyle;rounded=0;orthogonalLoop=1;jettySize=auto;html=1;exitX=0.5;exitY=1;exitDx=0;exitDy=0;entryX=0.5;entryY=0;entryDx=0;entryDy=0;entryPerimeter=0;" parent="1" source="CR93T0IN1tyJL_ZKIWgp-4" target="CR93T0IN1tyJL_ZKIWgp-7" edge="1">
          <mxGeometry relative="1" as="geometry" />
        </mxCell>
        <mxCell id="CR93T0IN1tyJL_ZKIWgp-34" value="&lt;font style=&quot;font-size: 18px;&quot;&gt;Yes&lt;/font&gt;" style="text;html=1;align=center;verticalAlign=middle;whiteSpace=wrap;rounded=0;" parent="1" vertex="1">
          <mxGeometry x="-170" y="360" width="60" height="30" as="geometry" />
        </mxCell>
        <mxCell id="CR93T0IN1tyJL_ZKIWgp-35" value="&lt;font style=&quot;font-size: 18px;&quot;&gt;No&lt;/font&gt;" style="text;html=1;align=center;verticalAlign=middle;whiteSpace=wrap;rounded=0;" parent="1" vertex="1">
          <mxGeometry x="-30" y="360" width="60" height="30" as="geometry" />
        </mxCell>
        <mxCell id="CR93T0IN1tyJL_ZKIWgp-36" value="&lt;font style=&quot;font-size: 18px;&quot;&gt;Yes&lt;/font&gt;" style="text;html=1;align=center;verticalAlign=middle;whiteSpace=wrap;rounded=0;" parent="1" vertex="1">
          <mxGeometry x="-250" y="540" width="60" height="30" as="geometry" />
        </mxCell>
        <mxCell id="CR93T0IN1tyJL_ZKIWgp-38" value="&lt;font style=&quot;font-size: 18px;&quot;&gt;No&lt;/font&gt;" style="text;html=1;align=center;verticalAlign=middle;whiteSpace=wrap;rounded=0;" parent="1" vertex="1">
          <mxGeometry x="-340" y="470" width="60" height="30" as="geometry" />
        </mxCell>
        <mxCell id="CR93T0IN1tyJL_ZKIWgp-39" value="&lt;font style=&quot;font-size: 18px;&quot;&gt;No&lt;/font&gt;" style="text;html=1;align=center;verticalAlign=middle;whiteSpace=wrap;rounded=0;" parent="1" vertex="1">
          <mxGeometry x="145" y="470" width="60" height="30" as="geometry" />
        </mxCell>
        <mxCell id="CR93T0IN1tyJL_ZKIWgp-40" value="&lt;font style=&quot;font-size: 18px;&quot;&gt;Yes&lt;/font&gt;" style="text;html=1;align=center;verticalAlign=middle;whiteSpace=wrap;rounded=0;" parent="1" vertex="1">
          <mxGeometry x="40" y="550" width="60" height="30" as="geometry" />
        </mxCell>
        <mxCell id="CR93T0IN1tyJL_ZKIWgp-155" style="edgeStyle=orthogonalEdgeStyle;rounded=0;orthogonalLoop=1;jettySize=auto;html=1;exitX=0.5;exitY=1;exitDx=0;exitDy=0;entryX=0.5;entryY=0;entryDx=0;entryDy=0;" parent="1" source="CR93T0IN1tyJL_ZKIWgp-42" target="CR93T0IN1tyJL_ZKIWgp-53" edge="1">
          <mxGeometry relative="1" as="geometry" />
        </mxCell>
        <mxCell id="CR93T0IN1tyJL_ZKIWgp-156" style="edgeStyle=orthogonalEdgeStyle;rounded=0;orthogonalLoop=1;jettySize=auto;html=1;exitX=0.5;exitY=1;exitDx=0;exitDy=0;entryX=0.5;entryY=0;entryDx=0;entryDy=0;" parent="1" source="CR93T0IN1tyJL_ZKIWgp-42" target="CR93T0IN1tyJL_ZKIWgp-44" edge="1">
          <mxGeometry relative="1" as="geometry" />
        </mxCell>
        <mxCell id="CR93T0IN1tyJL_ZKIWgp-157" style="edgeStyle=orthogonalEdgeStyle;rounded=0;orthogonalLoop=1;jettySize=auto;html=1;exitX=0.5;exitY=1;exitDx=0;exitDy=0;entryX=0.5;entryY=0;entryDx=0;entryDy=0;" parent="1" source="CR93T0IN1tyJL_ZKIWgp-42" target="CR93T0IN1tyJL_ZKIWgp-69" edge="1">
          <mxGeometry relative="1" as="geometry" />
        </mxCell>
        <mxCell id="CR93T0IN1tyJL_ZKIWgp-158" style="edgeStyle=orthogonalEdgeStyle;rounded=0;orthogonalLoop=1;jettySize=auto;html=1;exitX=0.5;exitY=1;exitDx=0;exitDy=0;entryX=0.5;entryY=0;entryDx=0;entryDy=0;" parent="1" source="CR93T0IN1tyJL_ZKIWgp-42" target="CR93T0IN1tyJL_ZKIWgp-72" edge="1">
          <mxGeometry relative="1" as="geometry" />
        </mxCell>
        <mxCell id="CR93T0IN1tyJL_ZKIWgp-159" style="edgeStyle=orthogonalEdgeStyle;rounded=0;orthogonalLoop=1;jettySize=auto;html=1;exitX=0.5;exitY=1;exitDx=0;exitDy=0;entryX=0.5;entryY=0;entryDx=0;entryDy=0;" parent="1" source="CR93T0IN1tyJL_ZKIWgp-42" target="CR93T0IN1tyJL_ZKIWgp-78" edge="1">
          <mxGeometry relative="1" as="geometry">
            <Array as="points">
              <mxPoint x="-30" y="800" />
              <mxPoint x="510" y="800" />
            </Array>
          </mxGeometry>
        </mxCell>
        <mxCell id="CR93T0IN1tyJL_ZKIWgp-162" style="edgeStyle=orthogonalEdgeStyle;rounded=0;orthogonalLoop=1;jettySize=auto;html=1;exitX=0.5;exitY=1;exitDx=0;exitDy=0;entryX=0.5;entryY=0;entryDx=0;entryDy=0;" parent="1" source="CR93T0IN1tyJL_ZKIWgp-42" target="CR93T0IN1tyJL_ZKIWgp-99" edge="1">
          <mxGeometry relative="1" as="geometry">
            <Array as="points">
              <mxPoint x="-30" y="800" />
              <mxPoint x="1205" y="800" />
            </Array>
          </mxGeometry>
        </mxCell>
        <mxCell id="MR3KhfEdpteIyf-42sQk-3" style="edgeStyle=orthogonalEdgeStyle;rounded=0;orthogonalLoop=1;jettySize=auto;html=1;exitX=0.5;exitY=1;exitDx=0;exitDy=0;entryX=0.5;entryY=0;entryDx=0;entryDy=0;" parent="1" source="CR93T0IN1tyJL_ZKIWgp-42" target="CR93T0IN1tyJL_ZKIWgp-94" edge="1">
          <mxGeometry relative="1" as="geometry">
            <Array as="points">
              <mxPoint x="-30" y="800" />
              <mxPoint x="940" y="800" />
            </Array>
          </mxGeometry>
        </mxCell>
        <mxCell id="CR93T0IN1tyJL_ZKIWgp-42" value="&lt;font size=&quot;3&quot;&gt;Display Home&lt;/font&gt;&lt;div&gt;&lt;font size=&quot;3&quot;&gt;&amp;nbsp;Screen&amp;nbsp;&lt;/font&gt;&lt;/div&gt;" style="shape=parallelogram;html=1;strokeWidth=2;perimeter=parallelogramPerimeter;whiteSpace=wrap;rounded=1;arcSize=12;size=0.23;" parent="1" vertex="1">
          <mxGeometry x="-115" y="680" width="170" height="60" as="geometry" />
        </mxCell>
        <mxCell id="CR93T0IN1tyJL_ZKIWgp-43" style="edgeStyle=orthogonalEdgeStyle;rounded=0;orthogonalLoop=1;jettySize=auto;html=1;exitX=0.5;exitY=1;exitDx=0;exitDy=0;entryX=0.576;entryY=0.035;entryDx=0;entryDy=0;entryPerimeter=0;" parent="1" source="CR93T0IN1tyJL_ZKIWgp-18" target="CR93T0IN1tyJL_ZKIWgp-42" edge="1">
          <mxGeometry relative="1" as="geometry" />
        </mxCell>
        <mxCell id="CR93T0IN1tyJL_ZKIWgp-122" style="edgeStyle=orthogonalEdgeStyle;rounded=0;orthogonalLoop=1;jettySize=auto;html=1;exitX=0.5;exitY=1;exitDx=0;exitDy=0;entryX=0.5;entryY=0;entryDx=0;entryDy=0;" parent="1" source="CR93T0IN1tyJL_ZKIWgp-44" target="CR93T0IN1tyJL_ZKIWgp-45" edge="1">
          <mxGeometry relative="1" as="geometry" />
        </mxCell>
        <mxCell id="CR93T0IN1tyJL_ZKIWgp-44" value="&lt;font size=&quot;3&quot;&gt;Search &amp;amp; Browse&lt;/font&gt;&lt;div&gt;&lt;font size=&quot;3&quot;&gt;Products&lt;/font&gt;&lt;/div&gt;" style="rounded=1;whiteSpace=wrap;html=1;absoluteArcSize=1;arcSize=14;strokeWidth=2;" parent="1" vertex="1">
          <mxGeometry x="-340" y="860" width="140" height="60" as="geometry" />
        </mxCell>
        <mxCell id="CR93T0IN1tyJL_ZKIWgp-123" style="edgeStyle=orthogonalEdgeStyle;rounded=0;orthogonalLoop=1;jettySize=auto;html=1;exitX=0.5;exitY=1;exitDx=0;exitDy=0;" parent="1" source="CR93T0IN1tyJL_ZKIWgp-45" target="CR93T0IN1tyJL_ZKIWgp-46" edge="1">
          <mxGeometry relative="1" as="geometry" />
        </mxCell>
        <mxCell id="CR93T0IN1tyJL_ZKIWgp-45" value="&lt;font size=&quot;3&quot;&gt;Add To Cart&amp;nbsp;&lt;/font&gt;" style="rounded=1;whiteSpace=wrap;html=1;absoluteArcSize=1;arcSize=14;strokeWidth=2;" parent="1" vertex="1">
          <mxGeometry x="-345" y="950" width="140" height="60" as="geometry" />
        </mxCell>
        <mxCell id="CR93T0IN1tyJL_ZKIWgp-124" style="edgeStyle=orthogonalEdgeStyle;rounded=0;orthogonalLoop=1;jettySize=auto;html=1;exitX=0.5;exitY=1;exitDx=0;exitDy=0;exitPerimeter=0;entryX=0.5;entryY=0;entryDx=0;entryDy=0;" parent="1" source="CR93T0IN1tyJL_ZKIWgp-46" target="CR93T0IN1tyJL_ZKIWgp-47" edge="1">
          <mxGeometry relative="1" as="geometry" />
        </mxCell>
        <mxCell id="CR93T0IN1tyJL_ZKIWgp-46" value="&lt;font size=&quot;3&quot;&gt;Wants To&amp;nbsp;&lt;/font&gt;&lt;div&gt;&lt;font size=&quot;3&quot;&gt;&amp;nbsp; &amp;nbsp;Edit ?&amp;nbsp;&lt;/font&gt;&lt;/div&gt;" style="strokeWidth=2;html=1;shape=mxgraph.flowchart.decision;whiteSpace=wrap;" parent="1" vertex="1">
          <mxGeometry x="-325" y="1040" width="100" height="100" as="geometry" />
        </mxCell>
        <mxCell id="CR93T0IN1tyJL_ZKIWgp-47" value="&lt;font size=&quot;3&quot;&gt;Edit Cart&amp;nbsp;&lt;/font&gt;" style="rounded=1;whiteSpace=wrap;html=1;absoluteArcSize=1;arcSize=14;strokeWidth=2;" parent="1" vertex="1">
          <mxGeometry x="-345" y="1170" width="140" height="60" as="geometry" />
        </mxCell>
        <mxCell id="CR93T0IN1tyJL_ZKIWgp-52" value="&lt;font size=&quot;3&quot;&gt;Payment&lt;/font&gt;" style="strokeWidth=2;html=1;shape=mxgraph.flowchart.start_2;whiteSpace=wrap;" parent="1" vertex="1">
          <mxGeometry x="-160" y="930" width="100" height="100" as="geometry" />
        </mxCell>
        <mxCell id="CR93T0IN1tyJL_ZKIWgp-104" style="edgeStyle=orthogonalEdgeStyle;rounded=0;orthogonalLoop=1;jettySize=auto;html=1;exitX=0.5;exitY=1;exitDx=0;exitDy=0;entryX=0.5;entryY=0;entryDx=0;entryDy=0;" parent="1" source="CR93T0IN1tyJL_ZKIWgp-53" target="CR93T0IN1tyJL_ZKIWgp-55" edge="1">
          <mxGeometry relative="1" as="geometry" />
        </mxCell>
        <mxCell id="CR93T0IN1tyJL_ZKIWgp-105" style="edgeStyle=orthogonalEdgeStyle;rounded=0;orthogonalLoop=1;jettySize=auto;html=1;exitX=0.5;exitY=1;exitDx=0;exitDy=0;entryX=0.5;entryY=0;entryDx=0;entryDy=0;" parent="1" source="CR93T0IN1tyJL_ZKIWgp-53" target="CR93T0IN1tyJL_ZKIWgp-101" edge="1">
          <mxGeometry relative="1" as="geometry" />
        </mxCell>
        <mxCell id="CR93T0IN1tyJL_ZKIWgp-106" style="edgeStyle=orthogonalEdgeStyle;rounded=0;orthogonalLoop=1;jettySize=auto;html=1;exitX=0.5;exitY=1;exitDx=0;exitDy=0;entryX=0.5;entryY=0;entryDx=0;entryDy=0;" parent="1" source="CR93T0IN1tyJL_ZKIWgp-53" target="CR93T0IN1tyJL_ZKIWgp-64" edge="1">
          <mxGeometry relative="1" as="geometry" />
        </mxCell>
        <mxCell id="CR93T0IN1tyJL_ZKIWgp-121" style="edgeStyle=orthogonalEdgeStyle;rounded=0;orthogonalLoop=1;jettySize=auto;html=1;exitX=0.5;exitY=1;exitDx=0;exitDy=0;" parent="1" source="CR93T0IN1tyJL_ZKIWgp-53" target="CR93T0IN1tyJL_ZKIWgp-67" edge="1">
          <mxGeometry relative="1" as="geometry" />
        </mxCell>
        <mxCell id="CR93T0IN1tyJL_ZKIWgp-53" value="&lt;font size=&quot;3&quot;&gt;Account&lt;/font&gt;" style="rounded=1;whiteSpace=wrap;html=1;absoluteArcSize=1;arcSize=14;strokeWidth=2;" parent="1" vertex="1">
          <mxGeometry x="-705" y="860" width="140" height="60" as="geometry" />
        </mxCell>
        <mxCell id="CR93T0IN1tyJL_ZKIWgp-55" value="&lt;font size=&quot;3&quot;&gt;View Profile&lt;/font&gt;" style="shape=parallelogram;html=1;strokeWidth=2;perimeter=parallelogramPerimeter;whiteSpace=wrap;rounded=1;arcSize=12;size=0.23;" parent="1" vertex="1">
          <mxGeometry x="-1070" y="1010" width="170" height="60" as="geometry" />
        </mxCell>
        <mxCell id="CR93T0IN1tyJL_ZKIWgp-110" style="edgeStyle=orthogonalEdgeStyle;rounded=0;orthogonalLoop=1;jettySize=auto;html=1;exitX=0.5;exitY=1;exitDx=0;exitDy=0;exitPerimeter=0;" parent="1" source="CR93T0IN1tyJL_ZKIWgp-56" target="CR93T0IN1tyJL_ZKIWgp-57" edge="1">
          <mxGeometry relative="1" as="geometry" />
        </mxCell>
        <mxCell id="CR93T0IN1tyJL_ZKIWgp-111" style="edgeStyle=orthogonalEdgeStyle;rounded=0;orthogonalLoop=1;jettySize=auto;html=1;exitX=0;exitY=0.5;exitDx=0;exitDy=0;exitPerimeter=0;entryX=0;entryY=0.25;entryDx=0;entryDy=0;" parent="1" source="CR93T0IN1tyJL_ZKIWgp-56" target="CR93T0IN1tyJL_ZKIWgp-55" edge="1">
          <mxGeometry relative="1" as="geometry">
            <Array as="points">
              <mxPoint x="-1120" y="1150" />
              <mxPoint x="-1120" y="1030" />
            </Array>
          </mxGeometry>
        </mxCell>
        <mxCell id="CR93T0IN1tyJL_ZKIWgp-56" value="&lt;font size=&quot;3&quot;&gt;Wants To&amp;nbsp;&lt;/font&gt;&lt;div&gt;&lt;font size=&quot;3&quot;&gt;&amp;nbsp; &amp;nbsp;Edit ?&amp;nbsp;&lt;/font&gt;&lt;/div&gt;" style="strokeWidth=2;html=1;shape=mxgraph.flowchart.decision;whiteSpace=wrap;" parent="1" vertex="1">
          <mxGeometry x="-1035" y="1100" width="100" height="100" as="geometry" />
        </mxCell>
        <mxCell id="CR93T0IN1tyJL_ZKIWgp-57" value="&lt;font size=&quot;3&quot;&gt;Edit Profile&amp;nbsp;&lt;/font&gt;" style="rounded=1;whiteSpace=wrap;html=1;absoluteArcSize=1;arcSize=14;strokeWidth=2;" parent="1" vertex="1">
          <mxGeometry x="-1055" y="1230" width="140" height="60" as="geometry" />
        </mxCell>
        <mxCell id="CR93T0IN1tyJL_ZKIWgp-58" value="&lt;font size=&quot;3&quot;&gt;View Order&lt;/font&gt;" style="shape=parallelogram;html=1;strokeWidth=2;perimeter=parallelogramPerimeter;whiteSpace=wrap;rounded=1;arcSize=12;size=0.23;" parent="1" vertex="1">
          <mxGeometry x="-880" y="1100" width="170" height="60" as="geometry" />
        </mxCell>
        <mxCell id="CR93T0IN1tyJL_ZKIWgp-114" style="edgeStyle=orthogonalEdgeStyle;rounded=0;orthogonalLoop=1;jettySize=auto;html=1;exitX=0;exitY=0.5;exitDx=0;exitDy=0;exitPerimeter=0;entryX=0;entryY=0.5;entryDx=0;entryDy=0;" parent="1" source="CR93T0IN1tyJL_ZKIWgp-59" target="CR93T0IN1tyJL_ZKIWgp-58" edge="1">
          <mxGeometry relative="1" as="geometry">
            <Array as="points">
              <mxPoint x="-900" y="1240" />
              <mxPoint x="-900" y="1130" />
            </Array>
          </mxGeometry>
        </mxCell>
        <mxCell id="CR93T0IN1tyJL_ZKIWgp-59" value="&lt;font size=&quot;3&quot;&gt;Delivered?&lt;/font&gt;" style="strokeWidth=2;html=1;shape=mxgraph.flowchart.decision;whiteSpace=wrap;" parent="1" vertex="1">
          <mxGeometry x="-850" y="1190" width="100" height="100" as="geometry" />
        </mxCell>
        <mxCell id="CR93T0IN1tyJL_ZKIWgp-116" style="edgeStyle=orthogonalEdgeStyle;rounded=0;orthogonalLoop=1;jettySize=auto;html=1;exitX=1;exitY=0.5;exitDx=0;exitDy=0;exitPerimeter=0;entryX=1;entryY=0.5;entryDx=0;entryDy=0;" parent="1" source="CR93T0IN1tyJL_ZKIWgp-60" target="CR93T0IN1tyJL_ZKIWgp-58" edge="1">
          <mxGeometry relative="1" as="geometry">
            <mxPoint x="-660" y="1130" as="targetPoint" />
            <Array as="points">
              <mxPoint x="-710" y="1360" />
              <mxPoint x="-710" y="1130" />
            </Array>
          </mxGeometry>
        </mxCell>
        <mxCell id="CR93T0IN1tyJL_ZKIWgp-118" style="edgeStyle=orthogonalEdgeStyle;rounded=0;orthogonalLoop=1;jettySize=auto;html=1;exitX=0.5;exitY=1;exitDx=0;exitDy=0;exitPerimeter=0;" parent="1" source="CR93T0IN1tyJL_ZKIWgp-60" target="CR93T0IN1tyJL_ZKIWgp-62" edge="1">
          <mxGeometry relative="1" as="geometry" />
        </mxCell>
        <mxCell id="CR93T0IN1tyJL_ZKIWgp-60" value="&lt;font size=&quot;3&quot;&gt;Wants To&amp;nbsp;&lt;/font&gt;&lt;div&gt;&lt;font size=&quot;3&quot;&gt;&amp;nbsp;Give Review &amp;amp;&amp;nbsp;&lt;/font&gt;&lt;/div&gt;&lt;div&gt;&lt;font size=&quot;3&quot;&gt;Rating?&amp;nbsp;&lt;/font&gt;&lt;/div&gt;" style="strokeWidth=2;html=1;shape=mxgraph.flowchart.decision;whiteSpace=wrap;" parent="1" vertex="1">
          <mxGeometry x="-870" y="1310" width="140" height="100" as="geometry" />
        </mxCell>
        <mxCell id="CR93T0IN1tyJL_ZKIWgp-62" value="&lt;font size=&quot;3&quot;&gt;Give Review &amp;amp;&amp;nbsp;&lt;/font&gt;&lt;div&gt;&lt;font size=&quot;3&quot;&gt;Rating&amp;nbsp;&lt;/font&gt;&lt;/div&gt;" style="rounded=1;whiteSpace=wrap;html=1;absoluteArcSize=1;arcSize=14;strokeWidth=2;" parent="1" vertex="1">
          <mxGeometry x="-870" y="1440" width="140" height="60" as="geometry" />
        </mxCell>
        <mxCell id="CR93T0IN1tyJL_ZKIWgp-64" value="&lt;font size=&quot;3&quot;&gt;Voucher&lt;/font&gt;" style="rounded=1;whiteSpace=wrap;html=1;absoluteArcSize=1;arcSize=14;strokeWidth=2;" parent="1" vertex="1">
          <mxGeometry x="-680" y="1010" width="140" height="60" as="geometry" />
        </mxCell>
        <mxCell id="CR93T0IN1tyJL_ZKIWgp-66" value="&lt;font size=&quot;3&quot;&gt;Display All The Vouchers&lt;/font&gt;" style="shape=parallelogram;html=1;strokeWidth=2;perimeter=parallelogramPerimeter;whiteSpace=wrap;rounded=1;arcSize=12;size=0.23;" parent="1" vertex="1">
          <mxGeometry x="-700" y="1090" width="170" height="60" as="geometry" />
        </mxCell>
        <mxCell id="CR93T0IN1tyJL_ZKIWgp-120" style="edgeStyle=orthogonalEdgeStyle;rounded=0;orthogonalLoop=1;jettySize=auto;html=1;exitX=0.5;exitY=1;exitDx=0;exitDy=0;entryX=0.5;entryY=0;entryDx=0;entryDy=0;" parent="1" source="CR93T0IN1tyJL_ZKIWgp-67" edge="1">
          <mxGeometry relative="1" as="geometry">
            <mxPoint x="-435" y="1100" as="targetPoint" />
          </mxGeometry>
        </mxCell>
        <mxCell id="CR93T0IN1tyJL_ZKIWgp-67" value="&lt;font size=&quot;3&quot;&gt;Help Center&lt;/font&gt;" style="rounded=1;whiteSpace=wrap;html=1;absoluteArcSize=1;arcSize=14;strokeWidth=2;" parent="1" vertex="1">
          <mxGeometry x="-505" y="1010" width="140" height="60" as="geometry" />
        </mxCell>
        <mxCell id="CR93T0IN1tyJL_ZKIWgp-129" style="edgeStyle=orthogonalEdgeStyle;rounded=0;orthogonalLoop=1;jettySize=auto;html=1;exitX=0.5;exitY=1;exitDx=0;exitDy=0;entryX=0.5;entryY=0;entryDx=0;entryDy=0;" parent="1" source="CR93T0IN1tyJL_ZKIWgp-69" target="CR93T0IN1tyJL_ZKIWgp-71" edge="1">
          <mxGeometry relative="1" as="geometry" />
        </mxCell>
        <mxCell id="CR93T0IN1tyJL_ZKIWgp-69" value="&lt;font size=&quot;3&quot;&gt;Chatboat FAQ&lt;/font&gt;" style="rounded=1;whiteSpace=wrap;html=1;absoluteArcSize=1;arcSize=14;strokeWidth=2;" parent="1" vertex="1">
          <mxGeometry x="-50" y="860" width="140" height="60" as="geometry" />
        </mxCell>
        <mxCell id="CR93T0IN1tyJL_ZKIWgp-131" style="edgeStyle=orthogonalEdgeStyle;rounded=0;orthogonalLoop=1;jettySize=auto;html=1;exitX=0.5;exitY=1;exitDx=0;exitDy=0;entryX=0.5;entryY=0;entryDx=0;entryDy=0;" parent="1" source="CR93T0IN1tyJL_ZKIWgp-72" target="CR93T0IN1tyJL_ZKIWgp-74" edge="1">
          <mxGeometry relative="1" as="geometry" />
        </mxCell>
        <mxCell id="CR93T0IN1tyJL_ZKIWgp-72" value="&lt;font size=&quot;3&quot;&gt;Reselling&lt;/font&gt;" style="rounded=1;whiteSpace=wrap;html=1;absoluteArcSize=1;arcSize=14;strokeWidth=2;" parent="1" vertex="1">
          <mxGeometry x="155" y="860" width="140" height="60" as="geometry" />
        </mxCell>
        <mxCell id="CR93T0IN1tyJL_ZKIWgp-71" value="&lt;font size=&quot;3&quot;&gt;&amp;nbsp; &amp;nbsp; View All Question&amp;nbsp;&lt;/font&gt;&lt;div&gt;&lt;font size=&quot;3&quot;&gt;&amp;amp;&lt;/font&gt;&lt;span style=&quot;font-size: medium; background-color: initial;&quot;&gt;View Answers&lt;/span&gt;&lt;/div&gt;" style="shape=parallelogram;html=1;strokeWidth=2;perimeter=parallelogramPerimeter;whiteSpace=wrap;rounded=1;arcSize=12;size=0.23;" parent="1" vertex="1">
          <mxGeometry x="-67.5" y="950" width="175" height="100" as="geometry" />
        </mxCell>
        <mxCell id="CR93T0IN1tyJL_ZKIWgp-74" value="&lt;font size=&quot;3&quot;&gt;View Products&lt;/font&gt;" style="rounded=1;whiteSpace=wrap;html=1;absoluteArcSize=1;arcSize=14;strokeWidth=2;" parent="1" vertex="1">
          <mxGeometry x="155" y="960" width="140" height="60" as="geometry" />
        </mxCell>
        <mxCell id="CR93T0IN1tyJL_ZKIWgp-134" style="edgeStyle=orthogonalEdgeStyle;rounded=0;orthogonalLoop=1;jettySize=auto;html=1;exitX=0;exitY=0.5;exitDx=0;exitDy=0;exitPerimeter=0;entryX=0;entryY=0.5;entryDx=0;entryDy=0;" parent="1" source="CR93T0IN1tyJL_ZKIWgp-76" target="CR93T0IN1tyJL_ZKIWgp-74" edge="1">
          <mxGeometry relative="1" as="geometry" />
        </mxCell>
        <mxCell id="CR93T0IN1tyJL_ZKIWgp-76" value="&lt;font size=&quot;3&quot;&gt;&amp;nbsp; Wants To&amp;nbsp;&lt;/font&gt;&lt;div&gt;&lt;font size=&quot;3&quot;&gt;&amp;nbsp; &amp;nbsp;Buy ?&lt;/font&gt;&lt;/div&gt;" style="strokeWidth=2;html=1;shape=mxgraph.flowchart.decision;whiteSpace=wrap;" parent="1" vertex="1">
          <mxGeometry x="180" y="1050" width="100" height="100" as="geometry" />
        </mxCell>
        <mxCell id="CR93T0IN1tyJL_ZKIWgp-77" value="&lt;font size=&quot;3&quot;&gt;Payment&lt;/font&gt;" style="strokeWidth=2;html=1;shape=mxgraph.flowchart.start_2;whiteSpace=wrap;" parent="1" vertex="1">
          <mxGeometry x="180" y="1190" width="100" height="100" as="geometry" />
        </mxCell>
        <mxCell id="CR93T0IN1tyJL_ZKIWgp-78" value="&lt;font size=&quot;3&quot;&gt;Buy Back&amp;nbsp;&lt;/font&gt;" style="rounded=1;whiteSpace=wrap;html=1;absoluteArcSize=1;arcSize=14;strokeWidth=2;" parent="1" vertex="1">
          <mxGeometry x="440" y="850" width="140" height="60" as="geometry" />
        </mxCell>
        <mxCell id="CR93T0IN1tyJL_ZKIWgp-136" style="edgeStyle=orthogonalEdgeStyle;rounded=0;orthogonalLoop=1;jettySize=auto;html=1;exitX=0;exitY=0.5;exitDx=0;exitDy=0;exitPerimeter=0;entryX=0.5;entryY=0;entryDx=0;entryDy=0;" parent="1" source="CR93T0IN1tyJL_ZKIWgp-79" target="CR93T0IN1tyJL_ZKIWgp-84" edge="1">
          <mxGeometry relative="1" as="geometry" />
        </mxCell>
        <mxCell id="CR93T0IN1tyJL_ZKIWgp-137" style="edgeStyle=orthogonalEdgeStyle;rounded=0;orthogonalLoop=1;jettySize=auto;html=1;exitX=1;exitY=0.5;exitDx=0;exitDy=0;exitPerimeter=0;entryX=0.5;entryY=0;entryDx=0;entryDy=0;" parent="1" source="CR93T0IN1tyJL_ZKIWgp-79" target="CR93T0IN1tyJL_ZKIWgp-80" edge="1">
          <mxGeometry relative="1" as="geometry" />
        </mxCell>
        <mxCell id="CR93T0IN1tyJL_ZKIWgp-79" value="&lt;font size=&quot;3&quot;&gt;Buy or&amp;nbsp;&lt;/font&gt;&lt;div&gt;&lt;font size=&quot;3&quot;&gt;Back ?&lt;/font&gt;&lt;/div&gt;" style="strokeWidth=2;html=1;shape=mxgraph.flowchart.decision;whiteSpace=wrap;" parent="1" vertex="1">
          <mxGeometry x="470" y="940" width="100" height="100" as="geometry" />
        </mxCell>
        <mxCell id="CR93T0IN1tyJL_ZKIWgp-80" value="&lt;font size=&quot;3&quot;&gt;Apply For Back&amp;nbsp;&lt;/font&gt;" style="rounded=1;whiteSpace=wrap;html=1;absoluteArcSize=1;arcSize=14;strokeWidth=2;" parent="1" vertex="1">
          <mxGeometry x="560" y="1050" width="140" height="60" as="geometry" />
        </mxCell>
        <mxCell id="CR93T0IN1tyJL_ZKIWgp-143" style="edgeStyle=orthogonalEdgeStyle;rounded=0;orthogonalLoop=1;jettySize=auto;html=1;exitX=0;exitY=0.5;exitDx=0;exitDy=0;exitPerimeter=0;entryX=0.5;entryY=0;entryDx=0;entryDy=0;" parent="1" source="CR93T0IN1tyJL_ZKIWgp-81" target="CR93T0IN1tyJL_ZKIWgp-82" edge="1">
          <mxGeometry relative="1" as="geometry" />
        </mxCell>
        <mxCell id="CR93T0IN1tyJL_ZKIWgp-144" style="edgeStyle=orthogonalEdgeStyle;rounded=0;orthogonalLoop=1;jettySize=auto;html=1;exitX=1;exitY=0.5;exitDx=0;exitDy=0;exitPerimeter=0;entryX=0.5;entryY=0;entryDx=0;entryDy=0;" parent="1" source="CR93T0IN1tyJL_ZKIWgp-81" target="CR93T0IN1tyJL_ZKIWgp-83" edge="1">
          <mxGeometry relative="1" as="geometry" />
        </mxCell>
        <mxCell id="CR93T0IN1tyJL_ZKIWgp-81" value="&lt;font size=&quot;3&quot;&gt;Accept ?&amp;nbsp;&lt;/font&gt;" style="strokeWidth=2;html=1;shape=mxgraph.flowchart.decision;whiteSpace=wrap;" parent="1" vertex="1">
          <mxGeometry x="580" y="1140" width="100" height="100" as="geometry" />
        </mxCell>
        <mxCell id="CR93T0IN1tyJL_ZKIWgp-82" value="&lt;font size=&quot;3&quot;&gt;Return&lt;/font&gt;" style="rounded=1;whiteSpace=wrap;html=1;absoluteArcSize=1;arcSize=14;strokeWidth=2;" parent="1" vertex="1">
          <mxGeometry x="500" y="1280" width="90" height="60" as="geometry" />
        </mxCell>
        <mxCell id="CR93T0IN1tyJL_ZKIWgp-83" value="&lt;font size=&quot;3&quot;&gt;Reject &amp;amp; Notify Customer&amp;nbsp;&lt;/font&gt;" style="rounded=1;whiteSpace=wrap;html=1;absoluteArcSize=1;arcSize=14;strokeWidth=2;" parent="1" vertex="1">
          <mxGeometry x="620" y="1280" width="140" height="60" as="geometry" />
        </mxCell>
        <mxCell id="CR93T0IN1tyJL_ZKIWgp-138" style="edgeStyle=orthogonalEdgeStyle;rounded=0;orthogonalLoop=1;jettySize=auto;html=1;exitX=0.5;exitY=1;exitDx=0;exitDy=0;entryX=0.5;entryY=0;entryDx=0;entryDy=0;" parent="1" source="CR93T0IN1tyJL_ZKIWgp-84" target="CR93T0IN1tyJL_ZKIWgp-85" edge="1">
          <mxGeometry relative="1" as="geometry" />
        </mxCell>
        <mxCell id="CR93T0IN1tyJL_ZKIWgp-84" value="&lt;font size=&quot;3&quot;&gt;View And Select&amp;nbsp;&lt;/font&gt;&lt;div&gt;&lt;font size=&quot;3&quot;&gt;Product&amp;nbsp;&lt;/font&gt;&lt;/div&gt;" style="rounded=1;whiteSpace=wrap;html=1;absoluteArcSize=1;arcSize=14;strokeWidth=2;" parent="1" vertex="1">
          <mxGeometry x="340" y="1050" width="140" height="60" as="geometry" />
        </mxCell>
        <mxCell id="CR93T0IN1tyJL_ZKIWgp-85" value="&lt;font size=&quot;3&quot;&gt;Select Customization options&amp;nbsp;&lt;/font&gt;" style="rounded=1;whiteSpace=wrap;html=1;absoluteArcSize=1;arcSize=14;strokeWidth=2;" parent="1" vertex="1">
          <mxGeometry x="340" y="1150" width="140" height="60" as="geometry" />
        </mxCell>
        <mxCell id="CR93T0IN1tyJL_ZKIWgp-87" value="&lt;font size=&quot;3&quot;&gt;Display All The&amp;nbsp;&lt;/font&gt;&lt;div&gt;&lt;font size=&quot;3&quot;&gt;Prices&amp;nbsp;&lt;/font&gt;&lt;span style=&quot;font-size: medium; background-color: initial;&quot;&gt;And&amp;nbsp;&lt;/span&gt;&lt;/div&gt;&lt;div&gt;&lt;span style=&quot;font-size: medium; background-color: initial;&quot;&gt;Terms &amp;amp; Conditions&lt;/span&gt;&lt;/div&gt;" style="shape=parallelogram;html=1;strokeWidth=2;perimeter=parallelogramPerimeter;whiteSpace=wrap;rounded=1;arcSize=12;size=0.23;" parent="1" vertex="1">
          <mxGeometry x="285" y="1250" width="220" height="100" as="geometry" />
        </mxCell>
        <mxCell id="CR93T0IN1tyJL_ZKIWgp-90" value="&lt;font size=&quot;3&quot;&gt;Spin The Wheel&lt;/font&gt;" style="rounded=1;whiteSpace=wrap;html=1;absoluteArcSize=1;arcSize=14;strokeWidth=2;" parent="1" vertex="1">
          <mxGeometry x="770" y="940" width="140" height="60" as="geometry" />
        </mxCell>
        <mxCell id="CR93T0IN1tyJL_ZKIWgp-91" value="&lt;font size=&quot;3&quot;&gt;Coin ?&amp;nbsp;&lt;/font&gt;" style="strokeWidth=2;html=1;shape=mxgraph.flowchart.decision;whiteSpace=wrap;" parent="1" vertex="1">
          <mxGeometry x="790" y="1030" width="100" height="100" as="geometry" />
        </mxCell>
        <mxCell id="CR93T0IN1tyJL_ZKIWgp-92" value="&lt;font size=&quot;3&quot;&gt;Adding Coin To The Profile &amp;amp; SpinToWin&lt;/font&gt;" style="rounded=1;whiteSpace=wrap;html=1;absoluteArcSize=1;arcSize=14;strokeWidth=2;" parent="1" vertex="1">
          <mxGeometry x="720" y="1160" width="140" height="60" as="geometry" />
        </mxCell>
        <mxCell id="CR93T0IN1tyJL_ZKIWgp-93" value="&lt;font size=&quot;3&quot;&gt;Display Better&amp;nbsp;&lt;/font&gt;&lt;div&gt;&lt;font size=&quot;3&quot;&gt;Luck&amp;nbsp;&lt;/font&gt;&lt;span style=&quot;font-size: medium; background-color: initial;&quot;&gt;Next Time&lt;/span&gt;&lt;/div&gt;" style="shape=parallelogram;html=1;strokeWidth=2;perimeter=parallelogramPerimeter;whiteSpace=wrap;rounded=1;arcSize=12;size=0.23;" parent="1" vertex="1">
          <mxGeometry x="800" y="1240" width="170" height="100" as="geometry" />
        </mxCell>
        <mxCell id="MR3KhfEdpteIyf-42sQk-1" style="edgeStyle=orthogonalEdgeStyle;rounded=0;orthogonalLoop=1;jettySize=auto;html=1;exitX=0.5;exitY=1;exitDx=0;exitDy=0;entryX=0.5;entryY=0;entryDx=0;entryDy=0;" parent="1" source="CR93T0IN1tyJL_ZKIWgp-94" target="CR93T0IN1tyJL_ZKIWgp-90" edge="1">
          <mxGeometry relative="1" as="geometry" />
        </mxCell>
        <mxCell id="CR93T0IN1tyJL_ZKIWgp-94" value="&lt;font size=&quot;3&quot;&gt;Spin To WIn&lt;/font&gt;" style="rounded=1;whiteSpace=wrap;html=1;absoluteArcSize=1;arcSize=14;strokeWidth=2;" parent="1" vertex="1">
          <mxGeometry x="870" y="840" width="140" height="60" as="geometry" />
        </mxCell>
        <mxCell id="CR93T0IN1tyJL_ZKIWgp-95" value="&lt;font size=&quot;3&quot;&gt;Display All The&amp;nbsp;&lt;/font&gt;&lt;div&gt;&lt;font size=&quot;3&quot;&gt;Discount&lt;/font&gt;&lt;/div&gt;&lt;div&gt;&lt;font size=&quot;3&quot;&gt;Coupen&lt;/font&gt;&lt;/div&gt;" style="shape=parallelogram;html=1;strokeWidth=2;perimeter=parallelogramPerimeter;whiteSpace=wrap;rounded=1;arcSize=12;size=0.23;" parent="1" vertex="1">
          <mxGeometry x="940" y="940" width="170" height="60" as="geometry" />
        </mxCell>
        <mxCell id="CR93T0IN1tyJL_ZKIWgp-151" style="edgeStyle=orthogonalEdgeStyle;rounded=0;orthogonalLoop=1;jettySize=auto;html=1;exitX=0.5;exitY=1;exitDx=0;exitDy=0;exitPerimeter=0;entryX=0.5;entryY=0;entryDx=0;entryDy=0;" parent="1" source="CR93T0IN1tyJL_ZKIWgp-96" target="CR93T0IN1tyJL_ZKIWgp-98" edge="1">
          <mxGeometry relative="1" as="geometry" />
        </mxCell>
        <mxCell id="CR93T0IN1tyJL_ZKIWgp-152" style="edgeStyle=orthogonalEdgeStyle;rounded=0;orthogonalLoop=1;jettySize=auto;html=1;exitX=0;exitY=0.5;exitDx=0;exitDy=0;exitPerimeter=0;entryX=0;entryY=0.5;entryDx=0;entryDy=0;" parent="1" source="CR93T0IN1tyJL_ZKIWgp-96" target="CR93T0IN1tyJL_ZKIWgp-95" edge="1">
          <mxGeometry relative="1" as="geometry">
            <Array as="points">
              <mxPoint x="930" y="1080" />
              <mxPoint x="930" y="970" />
            </Array>
          </mxGeometry>
        </mxCell>
        <mxCell id="CR93T0IN1tyJL_ZKIWgp-96" value="&lt;font size=&quot;3&quot;&gt;&amp;nbsp;Wants To&amp;nbsp;&lt;/font&gt;&lt;div&gt;&lt;font size=&quot;3&quot;&gt;Buy ?&lt;/font&gt;&lt;/div&gt;" style="strokeWidth=2;html=1;shape=mxgraph.flowchart.decision;whiteSpace=wrap;" parent="1" vertex="1">
          <mxGeometry x="970" y="1030" width="100" height="100" as="geometry" />
        </mxCell>
        <mxCell id="CR93T0IN1tyJL_ZKIWgp-98" value="&lt;font size=&quot;3&quot;&gt;Buy And Add Coupen To Account&amp;nbsp;&lt;/font&gt;" style="rounded=1;whiteSpace=wrap;html=1;absoluteArcSize=1;arcSize=14;strokeWidth=2;" parent="1" vertex="1">
          <mxGeometry x="955" y="1160" width="140" height="60" as="geometry" />
        </mxCell>
        <mxCell id="CR93T0IN1tyJL_ZKIWgp-153" style="edgeStyle=orthogonalEdgeStyle;rounded=0;orthogonalLoop=1;jettySize=auto;html=1;exitX=0.5;exitY=1;exitDx=0;exitDy=0;entryX=0.5;entryY=0;entryDx=0;entryDy=0;" parent="1" source="CR93T0IN1tyJL_ZKIWgp-99" target="CR93T0IN1tyJL_ZKIWgp-100" edge="1">
          <mxGeometry relative="1" as="geometry" />
        </mxCell>
        <mxCell id="CR93T0IN1tyJL_ZKIWgp-99" value="&lt;font size=&quot;3&quot;&gt;Sell With Us&lt;/font&gt;" style="rounded=1;whiteSpace=wrap;html=1;absoluteArcSize=1;arcSize=14;strokeWidth=2;" parent="1" vertex="1">
          <mxGeometry x="1135" y="850" width="140" height="60" as="geometry" />
        </mxCell>
        <mxCell id="kfhFPepG0alaDdScK1Xb-1" style="edgeStyle=orthogonalEdgeStyle;rounded=0;orthogonalLoop=1;jettySize=auto;html=1;exitX=0.5;exitY=1;exitDx=0;exitDy=0;" parent="1" source="CR93T0IN1tyJL_ZKIWgp-100" edge="1">
          <mxGeometry relative="1" as="geometry">
            <mxPoint x="1205.333333333334" y="1060" as="targetPoint" />
          </mxGeometry>
        </mxCell>
        <mxCell id="CR93T0IN1tyJL_ZKIWgp-100" value="&lt;font size=&quot;3&quot;&gt;View &amp;amp; Submit&amp;nbsp;&lt;/font&gt;&lt;div&gt;&lt;font size=&quot;3&quot;&gt;Form&amp;nbsp;&lt;/font&gt;&lt;/div&gt;" style="rounded=1;whiteSpace=wrap;html=1;absoluteArcSize=1;arcSize=14;strokeWidth=2;" parent="1" vertex="1">
          <mxGeometry x="1135" y="940" width="140" height="60" as="geometry" />
        </mxCell>
        <mxCell id="CR93T0IN1tyJL_ZKIWgp-112" style="edgeStyle=orthogonalEdgeStyle;rounded=0;orthogonalLoop=1;jettySize=auto;html=1;exitX=0.5;exitY=1;exitDx=0;exitDy=0;entryX=0.5;entryY=0;entryDx=0;entryDy=0;" parent="1" source="CR93T0IN1tyJL_ZKIWgp-101" target="CR93T0IN1tyJL_ZKIWgp-58" edge="1">
          <mxGeometry relative="1" as="geometry" />
        </mxCell>
        <mxCell id="CR93T0IN1tyJL_ZKIWgp-101" value="&lt;font size=&quot;3&quot;&gt;Order&lt;/font&gt;" style="rounded=1;whiteSpace=wrap;html=1;absoluteArcSize=1;arcSize=14;strokeWidth=2;" parent="1" vertex="1">
          <mxGeometry x="-865" y="1010" width="140" height="60" as="geometry" />
        </mxCell>
        <mxCell id="CR93T0IN1tyJL_ZKIWgp-109" style="edgeStyle=orthogonalEdgeStyle;rounded=0;orthogonalLoop=1;jettySize=auto;html=1;exitX=0.5;exitY=1;exitDx=0;exitDy=0;entryX=0.5;entryY=0;entryDx=0;entryDy=0;entryPerimeter=0;" parent="1" source="CR93T0IN1tyJL_ZKIWgp-55" target="CR93T0IN1tyJL_ZKIWgp-56" edge="1">
          <mxGeometry relative="1" as="geometry" />
        </mxCell>
        <mxCell id="CR93T0IN1tyJL_ZKIWgp-113" style="edgeStyle=orthogonalEdgeStyle;rounded=0;orthogonalLoop=1;jettySize=auto;html=1;exitX=0.5;exitY=1;exitDx=0;exitDy=0;entryX=0.5;entryY=0;entryDx=0;entryDy=0;entryPerimeter=0;" parent="1" source="CR93T0IN1tyJL_ZKIWgp-58" target="CR93T0IN1tyJL_ZKIWgp-59" edge="1">
          <mxGeometry relative="1" as="geometry" />
        </mxCell>
        <mxCell id="CR93T0IN1tyJL_ZKIWgp-117" style="edgeStyle=orthogonalEdgeStyle;rounded=0;orthogonalLoop=1;jettySize=auto;html=1;exitX=0.5;exitY=1;exitDx=0;exitDy=0;exitPerimeter=0;entryX=0.5;entryY=0;entryDx=0;entryDy=0;entryPerimeter=0;" parent="1" source="CR93T0IN1tyJL_ZKIWgp-59" target="CR93T0IN1tyJL_ZKIWgp-60" edge="1">
          <mxGeometry relative="1" as="geometry" />
        </mxCell>
        <mxCell id="CR93T0IN1tyJL_ZKIWgp-119" style="edgeStyle=orthogonalEdgeStyle;rounded=0;orthogonalLoop=1;jettySize=auto;html=1;exitX=0.5;exitY=1;exitDx=0;exitDy=0;entryX=0.549;entryY=0.089;entryDx=0;entryDy=0;entryPerimeter=0;" parent="1" source="CR93T0IN1tyJL_ZKIWgp-64" target="CR93T0IN1tyJL_ZKIWgp-66" edge="1">
          <mxGeometry relative="1" as="geometry" />
        </mxCell>
        <mxCell id="CR93T0IN1tyJL_ZKIWgp-125" style="edgeStyle=orthogonalEdgeStyle;rounded=0;orthogonalLoop=1;jettySize=auto;html=1;exitX=1;exitY=0.5;exitDx=0;exitDy=0;exitPerimeter=0;entryX=0;entryY=0.5;entryDx=0;entryDy=0;entryPerimeter=0;" parent="1" source="CR93T0IN1tyJL_ZKIWgp-46" target="CR93T0IN1tyJL_ZKIWgp-52" edge="1">
          <mxGeometry relative="1" as="geometry" />
        </mxCell>
        <mxCell id="CR93T0IN1tyJL_ZKIWgp-126" style="edgeStyle=orthogonalEdgeStyle;rounded=0;orthogonalLoop=1;jettySize=auto;html=1;exitX=1;exitY=0.5;exitDx=0;exitDy=0;entryX=0.043;entryY=0.75;entryDx=0;entryDy=0;entryPerimeter=0;" parent="1" source="CR93T0IN1tyJL_ZKIWgp-47" target="CR93T0IN1tyJL_ZKIWgp-52" edge="1">
          <mxGeometry relative="1" as="geometry" />
        </mxCell>
        <mxCell id="CR93T0IN1tyJL_ZKIWgp-127" style="edgeStyle=orthogonalEdgeStyle;rounded=0;orthogonalLoop=1;jettySize=auto;html=1;exitX=1;exitY=0.5;exitDx=0;exitDy=0;entryX=0.5;entryY=0;entryDx=0;entryDy=0;entryPerimeter=0;" parent="1" source="CR93T0IN1tyJL_ZKIWgp-44" target="CR93T0IN1tyJL_ZKIWgp-52" edge="1">
          <mxGeometry relative="1" as="geometry" />
        </mxCell>
        <mxCell id="CR93T0IN1tyJL_ZKIWgp-132" style="edgeStyle=orthogonalEdgeStyle;rounded=0;orthogonalLoop=1;jettySize=auto;html=1;exitX=0.5;exitY=1;exitDx=0;exitDy=0;entryX=0.5;entryY=0;entryDx=0;entryDy=0;entryPerimeter=0;" parent="1" source="CR93T0IN1tyJL_ZKIWgp-74" target="CR93T0IN1tyJL_ZKIWgp-76" edge="1">
          <mxGeometry relative="1" as="geometry" />
        </mxCell>
        <mxCell id="CR93T0IN1tyJL_ZKIWgp-133" style="edgeStyle=orthogonalEdgeStyle;rounded=0;orthogonalLoop=1;jettySize=auto;html=1;exitX=0.5;exitY=1;exitDx=0;exitDy=0;exitPerimeter=0;entryX=0.5;entryY=0;entryDx=0;entryDy=0;entryPerimeter=0;" parent="1" source="CR93T0IN1tyJL_ZKIWgp-76" target="CR93T0IN1tyJL_ZKIWgp-77" edge="1">
          <mxGeometry relative="1" as="geometry" />
        </mxCell>
        <mxCell id="CR93T0IN1tyJL_ZKIWgp-135" style="edgeStyle=orthogonalEdgeStyle;rounded=0;orthogonalLoop=1;jettySize=auto;html=1;exitX=0.5;exitY=1;exitDx=0;exitDy=0;entryX=0.5;entryY=0;entryDx=0;entryDy=0;entryPerimeter=0;" parent="1" source="CR93T0IN1tyJL_ZKIWgp-78" target="CR93T0IN1tyJL_ZKIWgp-79" edge="1">
          <mxGeometry relative="1" as="geometry" />
        </mxCell>
        <mxCell id="CR93T0IN1tyJL_ZKIWgp-140" style="edgeStyle=orthogonalEdgeStyle;rounded=0;orthogonalLoop=1;jettySize=auto;html=1;exitX=0.5;exitY=1;exitDx=0;exitDy=0;entryX=0.612;entryY=-0.022;entryDx=0;entryDy=0;entryPerimeter=0;" parent="1" source="CR93T0IN1tyJL_ZKIWgp-85" target="CR93T0IN1tyJL_ZKIWgp-87" edge="1">
          <mxGeometry relative="1" as="geometry" />
        </mxCell>
        <mxCell id="CR93T0IN1tyJL_ZKIWgp-141" style="edgeStyle=orthogonalEdgeStyle;rounded=0;orthogonalLoop=1;jettySize=auto;html=1;exitX=0.5;exitY=1;exitDx=0;exitDy=0;entryX=0.5;entryY=0;entryDx=0;entryDy=0;entryPerimeter=0;" parent="1" source="CR93T0IN1tyJL_ZKIWgp-87" edge="1">
          <mxGeometry relative="1" as="geometry">
            <mxPoint x="395" y="1390" as="targetPoint" />
          </mxGeometry>
        </mxCell>
        <mxCell id="CR93T0IN1tyJL_ZKIWgp-142" style="edgeStyle=orthogonalEdgeStyle;rounded=0;orthogonalLoop=1;jettySize=auto;html=1;exitX=0.5;exitY=1;exitDx=0;exitDy=0;entryX=0.5;entryY=0;entryDx=0;entryDy=0;entryPerimeter=0;" parent="1" source="CR93T0IN1tyJL_ZKIWgp-80" target="CR93T0IN1tyJL_ZKIWgp-81" edge="1">
          <mxGeometry relative="1" as="geometry" />
        </mxCell>
        <mxCell id="CR93T0IN1tyJL_ZKIWgp-146" style="edgeStyle=orthogonalEdgeStyle;rounded=0;orthogonalLoop=1;jettySize=auto;html=1;exitX=0.5;exitY=1;exitDx=0;exitDy=0;entryX=0.5;entryY=0;entryDx=0;entryDy=0;entryPerimeter=0;" parent="1" source="CR93T0IN1tyJL_ZKIWgp-90" target="CR93T0IN1tyJL_ZKIWgp-91" edge="1">
          <mxGeometry relative="1" as="geometry" />
        </mxCell>
        <mxCell id="CR93T0IN1tyJL_ZKIWgp-147" style="edgeStyle=orthogonalEdgeStyle;rounded=0;orthogonalLoop=1;jettySize=auto;html=1;exitX=0;exitY=0.5;exitDx=0;exitDy=0;exitPerimeter=0;entryX=0.331;entryY=-0.011;entryDx=0;entryDy=0;entryPerimeter=0;" parent="1" source="CR93T0IN1tyJL_ZKIWgp-91" target="CR93T0IN1tyJL_ZKIWgp-92" edge="1">
          <mxGeometry relative="1" as="geometry" />
        </mxCell>
        <mxCell id="CR93T0IN1tyJL_ZKIWgp-148" style="edgeStyle=orthogonalEdgeStyle;rounded=0;orthogonalLoop=1;jettySize=auto;html=1;exitX=1;exitY=0.5;exitDx=0;exitDy=0;exitPerimeter=0;entryX=0.574;entryY=0.078;entryDx=0;entryDy=0;entryPerimeter=0;" parent="1" source="CR93T0IN1tyJL_ZKIWgp-91" target="CR93T0IN1tyJL_ZKIWgp-93" edge="1">
          <mxGeometry relative="1" as="geometry" />
        </mxCell>
        <mxCell id="CR93T0IN1tyJL_ZKIWgp-150" style="edgeStyle=orthogonalEdgeStyle;rounded=0;orthogonalLoop=1;jettySize=auto;html=1;exitX=0.5;exitY=1;exitDx=0;exitDy=0;entryX=0.5;entryY=0;entryDx=0;entryDy=0;entryPerimeter=0;" parent="1" source="CR93T0IN1tyJL_ZKIWgp-95" target="CR93T0IN1tyJL_ZKIWgp-96" edge="1">
          <mxGeometry relative="1" as="geometry" />
        </mxCell>
        <mxCell id="CR93T0IN1tyJL_ZKIWgp-174" style="edgeStyle=orthogonalEdgeStyle;rounded=0;orthogonalLoop=1;jettySize=auto;html=1;exitX=0.5;exitY=1;exitDx=0;exitDy=0;exitPerimeter=0;entryX=0.5;entryY=0;entryDx=0;entryDy=0;" parent="1" source="CR93T0IN1tyJL_ZKIWgp-163" target="CR93T0IN1tyJL_ZKIWgp-164" edge="1">
          <mxGeometry relative="1" as="geometry" />
        </mxCell>
        <mxCell id="CR93T0IN1tyJL_ZKIWgp-163" value="&lt;font size=&quot;3&quot;&gt;Payment&lt;/font&gt;" style="strokeWidth=2;html=1;shape=mxgraph.flowchart.start_2;whiteSpace=wrap;" parent="1" vertex="1">
          <mxGeometry x="-1530" y="720" width="100" height="100" as="geometry" />
        </mxCell>
        <mxCell id="CR93T0IN1tyJL_ZKIWgp-164" value="&lt;font size=&quot;3&quot;&gt;Select Payment&amp;nbsp;&lt;/font&gt;&lt;div&gt;&lt;font size=&quot;3&quot;&gt;Mode&lt;/font&gt;&lt;/div&gt;" style="rounded=1;whiteSpace=wrap;html=1;absoluteArcSize=1;arcSize=14;strokeWidth=2;" parent="1" vertex="1">
          <mxGeometry x="-1550" y="850" width="140" height="60" as="geometry" />
        </mxCell>
        <mxCell id="CR93T0IN1tyJL_ZKIWgp-176" style="edgeStyle=orthogonalEdgeStyle;rounded=0;orthogonalLoop=1;jettySize=auto;html=1;exitX=0;exitY=0.5;exitDx=0;exitDy=0;exitPerimeter=0;entryX=0.5;entryY=0;entryDx=0;entryDy=0;" parent="1" source="CR93T0IN1tyJL_ZKIWgp-165" target="CR93T0IN1tyJL_ZKIWgp-166" edge="1">
          <mxGeometry relative="1" as="geometry" />
        </mxCell>
        <mxCell id="CR93T0IN1tyJL_ZKIWgp-178" style="edgeStyle=orthogonalEdgeStyle;rounded=0;orthogonalLoop=1;jettySize=auto;html=1;exitX=1;exitY=0.5;exitDx=0;exitDy=0;exitPerimeter=0;entryX=0.5;entryY=0;entryDx=0;entryDy=0;" parent="1" source="CR93T0IN1tyJL_ZKIWgp-165" target="CR93T0IN1tyJL_ZKIWgp-167" edge="1">
          <mxGeometry relative="1" as="geometry" />
        </mxCell>
        <mxCell id="CR93T0IN1tyJL_ZKIWgp-165" value="&lt;font size=&quot;3&quot;&gt;Offlline / Online?&amp;nbsp;&lt;/font&gt;" style="strokeWidth=2;html=1;shape=mxgraph.flowchart.decision;whiteSpace=wrap;" parent="1" vertex="1">
          <mxGeometry x="-1530" y="950" width="100" height="100" as="geometry" />
        </mxCell>
        <mxCell id="CR93T0IN1tyJL_ZKIWgp-166" value="&lt;font size=&quot;3&quot;&gt;&amp;nbsp; &amp;nbsp; Enter Necessary&amp;nbsp;&lt;/font&gt;&lt;div&gt;&lt;font size=&quot;3&quot;&gt;Details&lt;/font&gt;&lt;/div&gt;" style="shape=parallelogram;html=1;strokeWidth=2;perimeter=parallelogramPerimeter;whiteSpace=wrap;rounded=1;arcSize=12;size=0.23;" parent="1" vertex="1">
          <mxGeometry x="-1730" y="1070" width="170" height="60" as="geometry" />
        </mxCell>
        <mxCell id="CR93T0IN1tyJL_ZKIWgp-182" style="edgeStyle=orthogonalEdgeStyle;rounded=0;orthogonalLoop=1;jettySize=auto;html=1;exitX=0.5;exitY=1;exitDx=0;exitDy=0;entryX=0.5;entryY=0;entryDx=0;entryDy=0;" parent="1" source="CR93T0IN1tyJL_ZKIWgp-167" target="CR93T0IN1tyJL_ZKIWgp-168" edge="1">
          <mxGeometry relative="1" as="geometry" />
        </mxCell>
        <mxCell id="CR93T0IN1tyJL_ZKIWgp-167" value="&lt;font size=&quot;3&quot;&gt;Select COD&lt;/font&gt;" style="rounded=1;whiteSpace=wrap;html=1;absoluteArcSize=1;arcSize=14;strokeWidth=2;" parent="1" vertex="1">
          <mxGeometry x="-1450" y="1080" width="140" height="60" as="geometry" />
        </mxCell>
        <mxCell id="CR93T0IN1tyJL_ZKIWgp-168" value="&lt;font size=&quot;3&quot;&gt;Review Order&lt;/font&gt;&lt;div&gt;&lt;font size=&quot;3&quot;&gt;Summary&lt;/font&gt;&lt;/div&gt;" style="rounded=1;whiteSpace=wrap;html=1;absoluteArcSize=1;arcSize=14;strokeWidth=2;" parent="1" vertex="1">
          <mxGeometry x="-1450" y="1160" width="140" height="60" as="geometry" />
        </mxCell>
        <mxCell id="CR93T0IN1tyJL_ZKIWgp-185" style="edgeStyle=orthogonalEdgeStyle;rounded=0;orthogonalLoop=1;jettySize=auto;html=1;exitX=1;exitY=0.5;exitDx=0;exitDy=0;exitPerimeter=0;entryX=0.5;entryY=0;entryDx=0;entryDy=0;" parent="1" source="CR93T0IN1tyJL_ZKIWgp-170" target="CR93T0IN1tyJL_ZKIWgp-172" edge="1">
          <mxGeometry relative="1" as="geometry" />
        </mxCell>
        <mxCell id="CR93T0IN1tyJL_ZKIWgp-170" value="&lt;font size=&quot;3&quot;&gt;Confirm ?&lt;/font&gt;" style="strokeWidth=2;html=1;shape=mxgraph.flowchart.decision;whiteSpace=wrap;" parent="1" vertex="1">
          <mxGeometry x="-1430" y="1250" width="100" height="100" as="geometry" />
        </mxCell>
        <mxCell id="CR93T0IN1tyJL_ZKIWgp-171" value="&lt;font size=&quot;3&quot;&gt;Notify Cusomer&lt;/font&gt;" style="rounded=1;whiteSpace=wrap;html=1;absoluteArcSize=1;arcSize=14;strokeWidth=2;" parent="1" vertex="1">
          <mxGeometry x="-1570" y="1360" width="140" height="60" as="geometry" />
        </mxCell>
        <mxCell id="CR93T0IN1tyJL_ZKIWgp-172" value="&lt;font size=&quot;3&quot;&gt;Redirect To Product Page&lt;/font&gt;" style="rounded=1;whiteSpace=wrap;html=1;absoluteArcSize=1;arcSize=14;strokeWidth=2;" parent="1" vertex="1">
          <mxGeometry x="-1320" y="1360" width="140" height="60" as="geometry" />
        </mxCell>
        <mxCell id="CR93T0IN1tyJL_ZKIWgp-181" style="edgeStyle=orthogonalEdgeStyle;rounded=0;orthogonalLoop=1;jettySize=auto;html=1;exitX=1;exitY=0.5;exitDx=0;exitDy=0;entryX=0;entryY=0.5;entryDx=0;entryDy=0;" parent="1" source="CR93T0IN1tyJL_ZKIWgp-173" target="CR93T0IN1tyJL_ZKIWgp-168" edge="1">
          <mxGeometry relative="1" as="geometry" />
        </mxCell>
        <mxCell id="CR93T0IN1tyJL_ZKIWgp-173" value="&lt;font size=&quot;3&quot;&gt;Select Payment&amp;nbsp;&lt;/font&gt;&lt;div&gt;&lt;font size=&quot;3&quot;&gt;Method&amp;nbsp;&lt;/font&gt;&lt;/div&gt;" style="rounded=1;whiteSpace=wrap;html=1;absoluteArcSize=1;arcSize=14;strokeWidth=2;" parent="1" vertex="1">
          <mxGeometry x="-1730" y="1160" width="140" height="60" as="geometry" />
        </mxCell>
        <mxCell id="CR93T0IN1tyJL_ZKIWgp-175" style="edgeStyle=orthogonalEdgeStyle;rounded=0;orthogonalLoop=1;jettySize=auto;html=1;exitX=0.5;exitY=1;exitDx=0;exitDy=0;entryX=0.5;entryY=0;entryDx=0;entryDy=0;entryPerimeter=0;" parent="1" source="CR93T0IN1tyJL_ZKIWgp-164" target="CR93T0IN1tyJL_ZKIWgp-165" edge="1">
          <mxGeometry relative="1" as="geometry" />
        </mxCell>
        <mxCell id="CR93T0IN1tyJL_ZKIWgp-177" value="&lt;font style=&quot;font-size: 18px;&quot;&gt;Online&lt;/font&gt;&lt;div&gt;&lt;font style=&quot;font-size: 18px;&quot;&gt;&lt;br&gt;&lt;/font&gt;&lt;/div&gt;" style="text;html=1;align=center;verticalAlign=middle;whiteSpace=wrap;rounded=0;" parent="1" vertex="1">
          <mxGeometry x="-1610" y="985" width="60" height="30" as="geometry" />
        </mxCell>
        <mxCell id="CR93T0IN1tyJL_ZKIWgp-179" value="&lt;div&gt;&lt;font style=&quot;font-size: 18px;&quot;&gt;Offline&lt;/font&gt;&lt;/div&gt;" style="text;html=1;align=center;verticalAlign=middle;whiteSpace=wrap;rounded=0;" parent="1" vertex="1">
          <mxGeometry x="-1430" y="970" width="60" height="30" as="geometry" />
        </mxCell>
        <mxCell id="CR93T0IN1tyJL_ZKIWgp-180" style="edgeStyle=orthogonalEdgeStyle;rounded=0;orthogonalLoop=1;jettySize=auto;html=1;exitX=0.5;exitY=1;exitDx=0;exitDy=0;entryX=0.58;entryY=0.051;entryDx=0;entryDy=0;entryPerimeter=0;" parent="1" source="CR93T0IN1tyJL_ZKIWgp-166" target="CR93T0IN1tyJL_ZKIWgp-173" edge="1">
          <mxGeometry relative="1" as="geometry" />
        </mxCell>
        <mxCell id="CR93T0IN1tyJL_ZKIWgp-183" style="edgeStyle=orthogonalEdgeStyle;rounded=0;orthogonalLoop=1;jettySize=auto;html=1;exitX=0.5;exitY=1;exitDx=0;exitDy=0;entryX=0.5;entryY=0;entryDx=0;entryDy=0;entryPerimeter=0;" parent="1" source="CR93T0IN1tyJL_ZKIWgp-168" target="CR93T0IN1tyJL_ZKIWgp-170" edge="1">
          <mxGeometry relative="1" as="geometry" />
        </mxCell>
        <mxCell id="CR93T0IN1tyJL_ZKIWgp-184" style="edgeStyle=orthogonalEdgeStyle;rounded=0;orthogonalLoop=1;jettySize=auto;html=1;exitX=0;exitY=0.5;exitDx=0;exitDy=0;exitPerimeter=0;entryX=0.429;entryY=0;entryDx=0;entryDy=0;entryPerimeter=0;" parent="1" source="CR93T0IN1tyJL_ZKIWgp-170" target="CR93T0IN1tyJL_ZKIWgp-171" edge="1">
          <mxGeometry relative="1" as="geometry" />
        </mxCell>
        <mxCell id="CR93T0IN1tyJL_ZKIWgp-186" value="&lt;font style=&quot;font-size: 18px;&quot;&gt;Yes&lt;/font&gt;" style="text;html=1;align=center;verticalAlign=middle;whiteSpace=wrap;rounded=0;" parent="1" vertex="1">
          <mxGeometry x="-1500" y="1270" width="60" height="30" as="geometry" />
        </mxCell>
        <mxCell id="CR93T0IN1tyJL_ZKIWgp-187" value="&lt;font style=&quot;font-size: 18px;&quot;&gt;Yes&lt;/font&gt;" style="text;html=1;align=center;verticalAlign=middle;whiteSpace=wrap;rounded=0;" parent="1" vertex="1">
          <mxGeometry x="-1055" y="1200" width="60" height="30" as="geometry" />
        </mxCell>
        <mxCell id="CR93T0IN1tyJL_ZKIWgp-189" value="&lt;font style=&quot;font-size: 18px;&quot;&gt;Yes&lt;/font&gt;" style="text;html=1;align=center;verticalAlign=middle;whiteSpace=wrap;rounded=0;" parent="1" vertex="1">
          <mxGeometry x="-870" y="1285" width="60" height="30" as="geometry" />
        </mxCell>
        <mxCell id="CR93T0IN1tyJL_ZKIWgp-190" value="&lt;font style=&quot;font-size: 18px;&quot;&gt;Yes&lt;/font&gt;" style="text;html=1;align=center;verticalAlign=middle;whiteSpace=wrap;rounded=0;" parent="1" vertex="1">
          <mxGeometry x="-870" y="1410" width="60" height="30" as="geometry" />
        </mxCell>
        <mxCell id="CR93T0IN1tyJL_ZKIWgp-191" value="&lt;font style=&quot;font-size: 18px;&quot;&gt;Yes&lt;/font&gt;" style="text;html=1;align=center;verticalAlign=middle;whiteSpace=wrap;rounded=0;" parent="1" vertex="1">
          <mxGeometry x="-265" y="1135" width="60" height="30" as="geometry" />
        </mxCell>
        <mxCell id="CR93T0IN1tyJL_ZKIWgp-192" value="&lt;font style=&quot;font-size: 18px;&quot;&gt;Yes&lt;/font&gt;" style="text;html=1;align=center;verticalAlign=middle;whiteSpace=wrap;rounded=0;" parent="1" vertex="1">
          <mxGeometry x="160" y="1150" width="60" height="30" as="geometry" />
        </mxCell>
        <mxCell id="CR93T0IN1tyJL_ZKIWgp-193" value="&lt;font style=&quot;font-size: 18px;&quot;&gt;Yes&lt;/font&gt;" style="text;html=1;align=center;verticalAlign=middle;whiteSpace=wrap;rounded=0;" parent="1" vertex="1">
          <mxGeometry x="510" y="1150" width="60" height="30" as="geometry" />
        </mxCell>
        <mxCell id="CR93T0IN1tyJL_ZKIWgp-194" value="&lt;font style=&quot;font-size: 18px;&quot;&gt;Yes&lt;/font&gt;" style="text;html=1;align=center;verticalAlign=middle;whiteSpace=wrap;rounded=0;" parent="1" vertex="1">
          <mxGeometry x="730" y="1050" width="60" height="30" as="geometry" />
        </mxCell>
        <mxCell id="CR93T0IN1tyJL_ZKIWgp-195" value="&lt;font style=&quot;font-size: 18px;&quot;&gt;Yes&lt;/font&gt;" style="text;html=1;align=center;verticalAlign=middle;whiteSpace=wrap;rounded=0;" parent="1" vertex="1">
          <mxGeometry x="950" y="1130" width="60" height="30" as="geometry" />
        </mxCell>
        <mxCell id="-gok9tDeuThU6m1w4--G-1" value="&lt;font style=&quot;font-size: 18px;&quot;&gt;No&lt;/font&gt;" style="text;html=1;align=center;verticalAlign=middle;whiteSpace=wrap;rounded=0;" parent="1" vertex="1">
          <mxGeometry x="-1100" y="1120" width="60" height="30" as="geometry" />
        </mxCell>
        <mxCell id="-gok9tDeuThU6m1w4--G-2" value="&lt;font size=&quot;3&quot;&gt;Fill Form And Submit Form&lt;/font&gt;" style="rounded=1;whiteSpace=wrap;html=1;absoluteArcSize=1;arcSize=14;strokeWidth=2;" parent="1" vertex="1">
          <mxGeometry x="-505" y="1100" width="140" height="60" as="geometry" />
        </mxCell>
        <mxCell id="MR3KhfEdpteIyf-42sQk-2" style="edgeStyle=orthogonalEdgeStyle;rounded=0;orthogonalLoop=1;jettySize=auto;html=1;exitX=0.5;exitY=1;exitDx=0;exitDy=0;entryX=0.627;entryY=0.067;entryDx=0;entryDy=0;entryPerimeter=0;" parent="1" source="CR93T0IN1tyJL_ZKIWgp-94" target="CR93T0IN1tyJL_ZKIWgp-95" edge="1">
          <mxGeometry relative="1" as="geometry" />
        </mxCell>
        <mxCell id="MR3KhfEdpteIyf-42sQk-4" value="&lt;font style=&quot;font-size: 18px;&quot;&gt;No&lt;/font&gt;" style="text;html=1;align=center;verticalAlign=middle;whiteSpace=wrap;rounded=0;" parent="1" vertex="1">
          <mxGeometry x="-1320" y="1275" width="60" height="30" as="geometry" />
        </mxCell>
        <mxCell id="MR3KhfEdpteIyf-42sQk-5" value="&lt;font style=&quot;font-size: 18px;&quot;&gt;No&lt;/font&gt;" style="text;html=1;align=center;verticalAlign=middle;whiteSpace=wrap;rounded=0;" parent="1" vertex="1">
          <mxGeometry x="-900" y="1210" width="60" height="30" as="geometry" />
        </mxCell>
        <mxCell id="MR3KhfEdpteIyf-42sQk-6" value="&lt;font style=&quot;font-size: 18px;&quot;&gt;No&lt;/font&gt;" style="text;html=1;align=center;verticalAlign=middle;whiteSpace=wrap;rounded=0;" parent="1" vertex="1">
          <mxGeometry x="-765" y="1315" width="60" height="30" as="geometry" />
        </mxCell>
        <mxCell id="MR3KhfEdpteIyf-42sQk-7" value="&lt;font style=&quot;font-size: 18px;&quot;&gt;No&lt;/font&gt;" style="text;html=1;align=center;verticalAlign=middle;whiteSpace=wrap;rounded=0;" parent="1" vertex="1">
          <mxGeometry x="-250" y="1050" width="60" height="30" as="geometry" />
        </mxCell>
        <mxCell id="MR3KhfEdpteIyf-42sQk-9" value="&lt;font style=&quot;font-size: 18px;&quot;&gt;No&lt;/font&gt;" style="text;html=1;align=center;verticalAlign=middle;whiteSpace=wrap;rounded=0;" parent="1" vertex="1">
          <mxGeometry x="135" y="1070" width="60" height="30" as="geometry" />
        </mxCell>
        <mxCell id="MR3KhfEdpteIyf-42sQk-13" style="edgeStyle=orthogonalEdgeStyle;rounded=0;orthogonalLoop=1;jettySize=auto;html=1;exitX=0;exitY=0.5;exitDx=0;exitDy=0;exitPerimeter=0;entryX=0;entryY=0.5;entryDx=0;entryDy=0;" parent="1" source="MR3KhfEdpteIyf-42sQk-11" target="CR93T0IN1tyJL_ZKIWgp-87" edge="1">
          <mxGeometry relative="1" as="geometry">
            <Array as="points">
              <mxPoint x="240" y="1440" />
              <mxPoint x="240" y="1300" />
            </Array>
          </mxGeometry>
        </mxCell>
        <mxCell id="MR3KhfEdpteIyf-42sQk-11" value="&lt;font size=&quot;3&quot;&gt;Accept ?&amp;nbsp;&lt;/font&gt;" style="strokeWidth=2;html=1;shape=mxgraph.flowchart.decision;whiteSpace=wrap;" parent="1" vertex="1">
          <mxGeometry x="345" y="1390" width="100" height="100" as="geometry" />
        </mxCell>
        <mxCell id="MR3KhfEdpteIyf-42sQk-12" value="&lt;font size=&quot;3&quot;&gt;Payment&lt;/font&gt;" style="strokeWidth=2;html=1;shape=mxgraph.flowchart.start_2;whiteSpace=wrap;" parent="1" vertex="1">
          <mxGeometry x="485" y="1390" width="100" height="100" as="geometry" />
        </mxCell>
        <mxCell id="MR3KhfEdpteIyf-42sQk-14" style="edgeStyle=orthogonalEdgeStyle;rounded=0;orthogonalLoop=1;jettySize=auto;html=1;exitX=1;exitY=0.5;exitDx=0;exitDy=0;exitPerimeter=0;entryX=0;entryY=0.5;entryDx=0;entryDy=0;entryPerimeter=0;" parent="1" source="MR3KhfEdpteIyf-42sQk-11" target="MR3KhfEdpteIyf-42sQk-12" edge="1">
          <mxGeometry relative="1" as="geometry" />
        </mxCell>
        <mxCell id="MR3KhfEdpteIyf-42sQk-15" value="&lt;font style=&quot;font-size: 18px;&quot;&gt;Yes&lt;/font&gt;" style="text;html=1;align=center;verticalAlign=middle;whiteSpace=wrap;rounded=0;" parent="1" vertex="1">
          <mxGeometry x="430" y="1400" width="60" height="30" as="geometry" />
        </mxCell>
        <mxCell id="MR3KhfEdpteIyf-42sQk-16" value="&lt;font style=&quot;font-size: 18px;&quot;&gt;No&lt;/font&gt;" style="text;html=1;align=center;verticalAlign=middle;whiteSpace=wrap;rounded=0;" parent="1" vertex="1">
          <mxGeometry x="275" y="1410" width="60" height="30" as="geometry" />
        </mxCell>
        <mxCell id="MR3KhfEdpteIyf-42sQk-18" value="&lt;font style=&quot;font-size: 18px;&quot;&gt;No&lt;/font&gt;" style="text;html=1;align=center;verticalAlign=middle;whiteSpace=wrap;rounded=0;" parent="1" vertex="1">
          <mxGeometry x="660" y="1150" width="60" height="30" as="geometry" />
        </mxCell>
        <mxCell id="MR3KhfEdpteIyf-42sQk-19" value="&lt;font style=&quot;font-size: 18px;&quot;&gt;Buy&lt;/font&gt;" style="text;html=1;align=center;verticalAlign=middle;whiteSpace=wrap;rounded=0;" parent="1" vertex="1">
          <mxGeometry x="410" y="950" width="60" height="30" as="geometry" />
        </mxCell>
        <mxCell id="MR3KhfEdpteIyf-42sQk-20" value="&lt;font style=&quot;font-size: 18px;&quot;&gt;Back&lt;/font&gt;" style="text;html=1;align=center;verticalAlign=middle;whiteSpace=wrap;rounded=0;" parent="1" vertex="1">
          <mxGeometry x="570" y="950" width="60" height="30" as="geometry" />
        </mxCell>
        <mxCell id="kfhFPepG0alaDdScK1Xb-2" value="&lt;font size=&quot;3&quot;&gt;Redirect To Seller&amp;nbsp;&lt;/font&gt;&lt;div&gt;&lt;font size=&quot;3&quot;&gt;Website ( if accept )&lt;/font&gt;&lt;/div&gt;" style="rounded=1;whiteSpace=wrap;html=1;absoluteArcSize=1;arcSize=14;strokeWidth=2;" parent="1" vertex="1">
          <mxGeometry x="1135" y="1060" width="140" height="60" as="geometry" />
        </mxCell>
        <mxCell id="kfhFPepG0alaDdScK1Xb-3" value="&lt;font style=&quot;font-size: 18px;&quot;&gt;End&amp;nbsp;&lt;/font&gt;" style="strokeWidth=2;html=1;shape=mxgraph.flowchart.start_1;whiteSpace=wrap;" parent="1" vertex="1">
          <mxGeometry x="-90" y="1640" width="170" height="60" as="geometry" />
        </mxCell>
        <mxCell id="kfhFPepG0alaDdScK1Xb-4" style="edgeStyle=orthogonalEdgeStyle;rounded=0;orthogonalLoop=1;jettySize=auto;html=1;exitX=0.5;exitY=1;exitDx=0;exitDy=0;entryX=0.082;entryY=1.002;entryDx=0;entryDy=0;entryPerimeter=0;" parent="1" source="CR93T0IN1tyJL_ZKIWgp-57" target="kfhFPepG0alaDdScK1Xb-3" edge="1">
          <mxGeometry relative="1" as="geometry" />
        </mxCell>
        <mxCell id="kfhFPepG0alaDdScK1Xb-5" style="edgeStyle=orthogonalEdgeStyle;rounded=0;orthogonalLoop=1;jettySize=auto;html=1;exitX=0.5;exitY=1;exitDx=0;exitDy=0;entryX=0;entryY=0.5;entryDx=0;entryDy=0;entryPerimeter=0;" parent="1" source="CR93T0IN1tyJL_ZKIWgp-62" target="kfhFPepG0alaDdScK1Xb-3" edge="1">
          <mxGeometry relative="1" as="geometry" />
        </mxCell>
        <mxCell id="kfhFPepG0alaDdScK1Xb-6" style="edgeStyle=orthogonalEdgeStyle;rounded=0;orthogonalLoop=1;jettySize=auto;html=1;exitX=0.5;exitY=1;exitDx=0;exitDy=0;entryX=0.082;entryY=0.274;entryDx=0;entryDy=0;entryPerimeter=0;" parent="1" source="CR93T0IN1tyJL_ZKIWgp-66" target="kfhFPepG0alaDdScK1Xb-3" edge="1">
          <mxGeometry relative="1" as="geometry">
            <Array as="points">
              <mxPoint x="-615" y="1630" />
              <mxPoint x="-76" y="1630" />
            </Array>
          </mxGeometry>
        </mxCell>
        <mxCell id="kfhFPepG0alaDdScK1Xb-7" style="edgeStyle=orthogonalEdgeStyle;rounded=0;orthogonalLoop=1;jettySize=auto;html=1;exitX=0.5;exitY=1;exitDx=0;exitDy=0;entryX=0.246;entryY=0.092;entryDx=0;entryDy=0;entryPerimeter=0;" parent="1" source="-gok9tDeuThU6m1w4--G-2" target="kfhFPepG0alaDdScK1Xb-3" edge="1">
          <mxGeometry relative="1" as="geometry">
            <Array as="points">
              <mxPoint x="-435" y="1560" />
              <mxPoint x="-48" y="1560" />
            </Array>
          </mxGeometry>
        </mxCell>
        <mxCell id="kfhFPepG0alaDdScK1Xb-8" style="edgeStyle=orthogonalEdgeStyle;rounded=0;orthogonalLoop=1;jettySize=auto;html=1;exitX=0.5;exitY=1;exitDx=0;exitDy=0;entryX=0.417;entryY=0.012;entryDx=0;entryDy=0;entryPerimeter=0;" parent="1" source="CR93T0IN1tyJL_ZKIWgp-47" target="kfhFPepG0alaDdScK1Xb-3" edge="1">
          <mxGeometry relative="1" as="geometry" />
        </mxCell>
        <mxCell id="kfhFPepG0alaDdScK1Xb-9" style="edgeStyle=orthogonalEdgeStyle;rounded=0;orthogonalLoop=1;jettySize=auto;html=1;exitX=0.5;exitY=1;exitDx=0;exitDy=0;entryX=0.5;entryY=0;entryDx=0;entryDy=0;entryPerimeter=0;" parent="1" source="CR93T0IN1tyJL_ZKIWgp-71" target="kfhFPepG0alaDdScK1Xb-3" edge="1">
          <mxGeometry relative="1" as="geometry" />
        </mxCell>
        <mxCell id="kfhFPepG0alaDdScK1Xb-10" style="edgeStyle=orthogonalEdgeStyle;rounded=0;orthogonalLoop=1;jettySize=auto;html=1;exitX=0.75;exitY=1;exitDx=0;exitDy=0;entryX=0.61;entryY=0.012;entryDx=0;entryDy=0;entryPerimeter=0;" parent="1" source="CR93T0IN1tyJL_ZKIWgp-82" target="kfhFPepG0alaDdScK1Xb-3" edge="1">
          <mxGeometry relative="1" as="geometry">
            <Array as="points">
              <mxPoint x="567" y="1560" />
              <mxPoint x="14" y="1560" />
            </Array>
          </mxGeometry>
        </mxCell>
        <mxCell id="kfhFPepG0alaDdScK1Xb-11" style="edgeStyle=orthogonalEdgeStyle;rounded=0;orthogonalLoop=1;jettySize=auto;html=1;exitX=0.5;exitY=1;exitDx=0;exitDy=0;entryX=0.738;entryY=-0.049;entryDx=0;entryDy=0;entryPerimeter=0;" parent="1" source="CR93T0IN1tyJL_ZKIWgp-83" target="kfhFPepG0alaDdScK1Xb-3" edge="1">
          <mxGeometry relative="1" as="geometry">
            <Array as="points">
              <mxPoint x="690" y="1590" />
              <mxPoint x="35" y="1590" />
            </Array>
          </mxGeometry>
        </mxCell>
        <mxCell id="kfhFPepG0alaDdScK1Xb-12" style="edgeStyle=orthogonalEdgeStyle;rounded=0;orthogonalLoop=1;jettySize=auto;html=1;exitX=0.5;exitY=1;exitDx=0;exitDy=0;entryX=0.855;entryY=0.145;entryDx=0;entryDy=0;entryPerimeter=0;" parent="1" source="CR93T0IN1tyJL_ZKIWgp-93" target="kfhFPepG0alaDdScK1Xb-3" edge="1">
          <mxGeometry relative="1" as="geometry">
            <Array as="points">
              <mxPoint x="885" y="1620" />
              <mxPoint x="55" y="1620" />
            </Array>
          </mxGeometry>
        </mxCell>
        <mxCell id="kfhFPepG0alaDdScK1Xb-13" style="edgeStyle=orthogonalEdgeStyle;rounded=0;orthogonalLoop=1;jettySize=auto;html=1;exitX=0.5;exitY=1;exitDx=0;exitDy=0;entryX=1;entryY=0.5;entryDx=0;entryDy=0;entryPerimeter=0;" parent="1" source="CR93T0IN1tyJL_ZKIWgp-98" target="kfhFPepG0alaDdScK1Xb-3" edge="1">
          <mxGeometry relative="1" as="geometry" />
        </mxCell>
        <mxCell id="kfhFPepG0alaDdScK1Xb-14" style="edgeStyle=orthogonalEdgeStyle;rounded=0;orthogonalLoop=1;jettySize=auto;html=1;exitX=0.5;exitY=1;exitDx=0;exitDy=0;entryX=0.855;entryY=0.855;entryDx=0;entryDy=0;entryPerimeter=0;" parent="1" source="kfhFPepG0alaDdScK1Xb-2" target="kfhFPepG0alaDdScK1Xb-3" edge="1">
          <mxGeometry relative="1" as="geometry">
            <Array as="points">
              <mxPoint x="1205" y="1700" />
              <mxPoint x="55" y="1700" />
            </Array>
          </mxGeometry>
        </mxCell>
        <mxCell id="kfhFPepG0alaDdScK1Xb-15" style="edgeStyle=orthogonalEdgeStyle;rounded=0;orthogonalLoop=1;jettySize=auto;html=1;exitX=0.5;exitY=1;exitDx=0;exitDy=0;entryX=1;entryY=0.5;entryDx=0;entryDy=0;entryPerimeter=0;" parent="1" source="CR93T0IN1tyJL_ZKIWgp-92" target="kfhFPepG0alaDdScK1Xb-3" edge="1">
          <mxGeometry relative="1" as="geometry">
            <Array as="points">
              <mxPoint x="790" y="1650" />
              <mxPoint x="80" y="1650" />
            </Array>
          </mxGeometry>
        </mxCell>
      </root>
    </mxGraphModel>
  </diagram>
</mxfile>
